<mxfile host="Electron" modified="2024-04-07T16:13:43.580Z" agent="Mozilla/5.0 (Windows NT 10.0; Win64; x64) AppleWebKit/537.36 (KHTML, like Gecko) draw.io/24.1.0 Chrome/120.0.6099.109 Electron/28.1.0 Safari/537.36" etag="U7iqU_1wuBIK4HJ2mHhf" version="24.1.0" type="device">
  <diagram name="Page-1" id="8fx8IPjQ6ZF5UuihQfKe">
    <mxGraphModel dx="4392" dy="3952" grid="1" gridSize="10" guides="1" tooltips="1" connect="1" arrows="1" fold="1" page="1" pageScale="1" pageWidth="827" pageHeight="1169" math="0" shadow="0">
      <root>
        <mxCell id="0" />
        <mxCell id="1" parent="0" />
        <mxCell id="2Fv1Fu4X-BrB-Ee9JY3G-1" value="" style="rounded=0;whiteSpace=wrap;html=1;" vertex="1" parent="1">
          <mxGeometry x="10" y="10" width="1920" height="1080" as="geometry" />
        </mxCell>
        <mxCell id="2Fv1Fu4X-BrB-Ee9JY3G-2" value="&lt;font style=&quot;font-size: 60px;&quot;&gt;Product&lt;/font&gt;" style="rounded=0;whiteSpace=wrap;html=1;" vertex="1" parent="1">
          <mxGeometry x="20" y="20" width="600" height="600" as="geometry" />
        </mxCell>
        <mxCell id="2Fv1Fu4X-BrB-Ee9JY3G-13" value="&#xa;&lt;span style=&quot;color: rgb(0, 0, 0); font-family: Helvetica; font-size: 60px; font-style: normal; font-variant-ligatures: normal; font-variant-caps: normal; font-weight: 400; letter-spacing: normal; orphans: 2; text-align: center; text-indent: 0px; text-transform: none; widows: 2; word-spacing: 0px; -webkit-text-stroke-width: 0px; white-space: normal; background-color: rgb(251, 251, 251); text-decoration-thickness: initial; text-decoration-style: initial; text-decoration-color: initial; display: inline !important; float: none;&quot;&gt;Product&lt;/span&gt;&#xa;&#xa;" style="rounded=0;whiteSpace=wrap;html=1;" vertex="1" parent="1">
          <mxGeometry x="1320" y="20" width="600" height="600" as="geometry" />
        </mxCell>
        <mxCell id="2Fv1Fu4X-BrB-Ee9JY3G-14" value="&#xa;&lt;span style=&quot;color: rgb(0, 0, 0); font-family: Helvetica; font-size: 60px; font-style: normal; font-variant-ligatures: normal; font-variant-caps: normal; font-weight: 400; letter-spacing: normal; orphans: 2; text-align: center; text-indent: 0px; text-transform: none; widows: 2; word-spacing: 0px; -webkit-text-stroke-width: 0px; white-space: normal; background-color: rgb(251, 251, 251); text-decoration-thickness: initial; text-decoration-style: initial; text-decoration-color: initial; display: inline !important; float: none;&quot;&gt;Product&lt;/span&gt;&#xa;&#xa;" style="rounded=0;whiteSpace=wrap;html=1;" vertex="1" parent="1">
          <mxGeometry x="670" y="20" width="600" height="600" as="geometry" />
        </mxCell>
        <mxCell id="2Fv1Fu4X-BrB-Ee9JY3G-16" value="&#xa;&lt;span style=&quot;color: rgb(0, 0, 0); font-family: Helvetica; font-size: 60px; font-style: normal; font-variant-ligatures: normal; font-variant-caps: normal; font-weight: 400; letter-spacing: normal; orphans: 2; text-align: center; text-indent: 0px; text-transform: none; widows: 2; word-spacing: 0px; -webkit-text-stroke-width: 0px; white-space: normal; background-color: rgb(251, 251, 251); text-decoration-thickness: initial; text-decoration-style: initial; text-decoration-color: initial; display: inline !important; float: none;&quot;&gt;Product&lt;/span&gt;&#xa;&#xa;" style="rounded=0;whiteSpace=wrap;html=1;" vertex="1" parent="1">
          <mxGeometry x="20" y="640" width="600" height="440" as="geometry" />
        </mxCell>
        <mxCell id="2Fv1Fu4X-BrB-Ee9JY3G-17" value="&#xa;&lt;span style=&quot;color: rgb(0, 0, 0); font-family: Helvetica; font-size: 60px; font-style: normal; font-variant-ligatures: normal; font-variant-caps: normal; font-weight: 400; letter-spacing: normal; orphans: 2; text-align: center; text-indent: 0px; text-transform: none; widows: 2; word-spacing: 0px; -webkit-text-stroke-width: 0px; white-space: normal; background-color: rgb(251, 251, 251); text-decoration-thickness: initial; text-decoration-style: initial; text-decoration-color: initial; display: inline !important; float: none;&quot;&gt;Product&lt;/span&gt;&#xa;&#xa;" style="rounded=0;whiteSpace=wrap;html=1;" vertex="1" parent="1">
          <mxGeometry x="1320" y="640" width="600" height="440" as="geometry" />
        </mxCell>
        <mxCell id="2Fv1Fu4X-BrB-Ee9JY3G-18" value="&#xa;&lt;span style=&quot;color: rgb(0, 0, 0); font-family: Helvetica; font-size: 60px; font-style: normal; font-variant-ligatures: normal; font-variant-caps: normal; font-weight: 400; letter-spacing: normal; orphans: 2; text-align: center; text-indent: 0px; text-transform: none; widows: 2; word-spacing: 0px; -webkit-text-stroke-width: 0px; white-space: normal; background-color: rgb(251, 251, 251); text-decoration-thickness: initial; text-decoration-style: initial; text-decoration-color: initial; display: inline !important; float: none;&quot;&gt;Product&lt;/span&gt;&#xa;&#xa;" style="rounded=0;whiteSpace=wrap;html=1;" vertex="1" parent="1">
          <mxGeometry x="670" y="640" width="600" height="440" as="geometry" />
        </mxCell>
        <mxCell id="2Fv1Fu4X-BrB-Ee9JY3G-19" value="&lt;font style=&quot;font-size: 60px;&quot;&gt;Basket&lt;/font&gt;" style="rounded=0;whiteSpace=wrap;html=1;" vertex="1" parent="1">
          <mxGeometry x="1450" y="10" width="480" height="120" as="geometry" />
        </mxCell>
        <mxCell id="2Fv1Fu4X-BrB-Ee9JY3G-27" value="&lt;font style=&quot;font-size: 60px;&quot;&gt;Basket&lt;/font&gt;" style="rounded=0;whiteSpace=wrap;html=1;verticalAlign=top;" vertex="1" parent="1">
          <mxGeometry x="10" y="1110" width="1920" height="820" as="geometry" />
        </mxCell>
        <mxCell id="2Fv1Fu4X-BrB-Ee9JY3G-28" value="&lt;span style=&quot;font-size: 120px;&quot;&gt;X&lt;/span&gt;" style="rounded=0;whiteSpace=wrap;html=1;" vertex="1" parent="1">
          <mxGeometry x="1810" y="1110" width="120" height="120" as="geometry" />
        </mxCell>
        <mxCell id="2Fv1Fu4X-BrB-Ee9JY3G-29" value="&lt;font style=&quot;font-size: 60px;&quot;&gt;Product&lt;/font&gt;" style="rounded=0;whiteSpace=wrap;html=1;" vertex="1" parent="1">
          <mxGeometry x="10" y="1230" width="1920" height="108" as="geometry" />
        </mxCell>
        <mxCell id="2Fv1Fu4X-BrB-Ee9JY3G-30" value="&#xa;&lt;span style=&quot;color: rgb(0, 0, 0); font-family: Helvetica; font-size: 60px; font-style: normal; font-variant-ligatures: normal; font-variant-caps: normal; font-weight: 400; letter-spacing: normal; orphans: 2; text-align: center; text-indent: 0px; text-transform: none; widows: 2; word-spacing: 0px; -webkit-text-stroke-width: 0px; white-space: normal; background-color: rgb(251, 251, 251); text-decoration-thickness: initial; text-decoration-style: initial; text-decoration-color: initial; display: inline !important; float: none;&quot;&gt;Product&lt;/span&gt;&#xa;&#xa;" style="rounded=0;whiteSpace=wrap;html=1;" vertex="1" parent="1">
          <mxGeometry x="10" y="1340" width="1920" height="108" as="geometry" />
        </mxCell>
        <mxCell id="2Fv1Fu4X-BrB-Ee9JY3G-31" value="&#xa;&lt;span style=&quot;color: rgb(0, 0, 0); font-family: Helvetica; font-size: 60px; font-style: normal; font-variant-ligatures: normal; font-variant-caps: normal; font-weight: 400; letter-spacing: normal; orphans: 2; text-align: center; text-indent: 0px; text-transform: none; widows: 2; word-spacing: 0px; -webkit-text-stroke-width: 0px; white-space: normal; background-color: rgb(251, 251, 251); text-decoration-thickness: initial; text-decoration-style: initial; text-decoration-color: initial; display: inline !important; float: none;&quot;&gt;Product&lt;/span&gt;&#xa;&#xa;" style="rounded=0;whiteSpace=wrap;html=1;" vertex="1" parent="1">
          <mxGeometry x="10" y="1448" width="1920" height="108" as="geometry" />
        </mxCell>
        <mxCell id="2Fv1Fu4X-BrB-Ee9JY3G-32" value="&#xa;&lt;span style=&quot;color: rgb(0, 0, 0); font-family: Helvetica; font-size: 60px; font-style: normal; font-variant-ligatures: normal; font-variant-caps: normal; font-weight: 400; letter-spacing: normal; orphans: 2; text-align: center; text-indent: 0px; text-transform: none; widows: 2; word-spacing: 0px; -webkit-text-stroke-width: 0px; white-space: normal; background-color: rgb(251, 251, 251); text-decoration-thickness: initial; text-decoration-style: initial; text-decoration-color: initial; display: inline !important; float: none;&quot;&gt;Product&lt;/span&gt;&#xa;&#xa;" style="rounded=0;whiteSpace=wrap;html=1;" vertex="1" parent="1">
          <mxGeometry x="10" y="1558" width="1920" height="108" as="geometry" />
        </mxCell>
        <mxCell id="2Fv1Fu4X-BrB-Ee9JY3G-35" value="&#xa;&lt;span style=&quot;color: rgb(0, 0, 0); font-family: Helvetica; font-size: 60px; font-style: normal; font-variant-ligatures: normal; font-variant-caps: normal; font-weight: 400; letter-spacing: normal; orphans: 2; text-align: center; text-indent: 0px; text-transform: none; widows: 2; word-spacing: 0px; -webkit-text-stroke-width: 0px; white-space: normal; background-color: rgb(251, 251, 251); text-decoration-thickness: initial; text-decoration-style: initial; text-decoration-color: initial; display: inline !important; float: none;&quot;&gt;Product&lt;/span&gt;&#xa;&#xa;" style="rounded=0;whiteSpace=wrap;html=1;" vertex="1" parent="1">
          <mxGeometry x="10" y="1666" width="1920" height="108" as="geometry" />
        </mxCell>
        <mxCell id="2Fv1Fu4X-BrB-Ee9JY3G-36" value="&#xa;&lt;span style=&quot;color: rgb(0, 0, 0); font-family: Helvetica; font-size: 60px; font-style: normal; font-variant-ligatures: normal; font-variant-caps: normal; font-weight: 400; letter-spacing: normal; orphans: 2; text-align: center; text-indent: 0px; text-transform: none; widows: 2; word-spacing: 0px; -webkit-text-stroke-width: 0px; white-space: normal; background-color: rgb(251, 251, 251); text-decoration-thickness: initial; text-decoration-style: initial; text-decoration-color: initial; display: inline !important; float: none;&quot;&gt;Product&lt;/span&gt;&#xa;&#xa;" style="rounded=0;whiteSpace=wrap;html=1;" vertex="1" parent="1">
          <mxGeometry x="10" y="1776" width="1920" height="108" as="geometry" />
        </mxCell>
        <mxCell id="2Fv1Fu4X-BrB-Ee9JY3G-37" value="&#xa;&lt;span style=&quot;color: rgb(0, 0, 0); font-family: Helvetica; font-size: 60px; font-style: normal; font-variant-ligatures: normal; font-variant-caps: normal; font-weight: 400; letter-spacing: normal; orphans: 2; text-align: center; text-indent: 0px; text-transform: none; widows: 2; word-spacing: 0px; -webkit-text-stroke-width: 0px; white-space: normal; background-color: rgb(251, 251, 251); text-decoration-thickness: initial; text-decoration-style: initial; text-decoration-color: initial; display: inline !important; float: none;&quot;&gt;Product&lt;/span&gt;&#xa;&#xa;" style="rounded=0;whiteSpace=wrap;html=1;" vertex="1" parent="1">
          <mxGeometry x="10" y="1884" width="1920" height="108" as="geometry" />
        </mxCell>
        <mxCell id="2Fv1Fu4X-BrB-Ee9JY3G-38" value="&#xa;&lt;span style=&quot;color: rgb(0, 0, 0); font-family: Helvetica; font-size: 60px; font-style: normal; font-variant-ligatures: normal; font-variant-caps: normal; font-weight: 400; letter-spacing: normal; orphans: 2; text-align: center; text-indent: 0px; text-transform: none; widows: 2; word-spacing: 0px; -webkit-text-stroke-width: 0px; white-space: normal; background-color: rgb(251, 251, 251); text-decoration-thickness: initial; text-decoration-style: initial; text-decoration-color: initial; display: inline !important; float: none;&quot;&gt;Product&lt;/span&gt;&#xa;&#xa;" style="rounded=0;whiteSpace=wrap;html=1;" vertex="1" parent="1">
          <mxGeometry x="10" y="1994" width="1920" height="196" as="geometry" />
        </mxCell>
        <mxCell id="2Fv1Fu4X-BrB-Ee9JY3G-39" value="&lt;font style=&quot;font-size: 80px;&quot;&gt;Checkout&lt;/font&gt;" style="rounded=0;whiteSpace=wrap;html=1;" vertex="1" parent="1">
          <mxGeometry x="735" y="1992" width="470" height="198" as="geometry" />
        </mxCell>
        <mxCell id="2Fv1Fu4X-BrB-Ee9JY3G-40" value="" style="rounded=0;whiteSpace=wrap;html=1;verticalLabelPosition=bottom;labelBackgroundColor=#ffffff;verticalAlign=top;strokeWidth=2;strokeColor=#0080F0;shadow=0;dashed=0;shape=mxgraph.ios7.icons.trashcan;" vertex="1" parent="1">
          <mxGeometry x="1830" y="1239" width="90" height="90" as="geometry" />
        </mxCell>
        <mxCell id="2Fv1Fu4X-BrB-Ee9JY3G-41" value="" style="rounded=0;whiteSpace=wrap;html=1;verticalLabelPosition=bottom;labelBackgroundColor=#ffffff;verticalAlign=top;strokeWidth=2;strokeColor=#0080F0;shadow=0;dashed=0;shape=mxgraph.ios7.icons.trashcan;" vertex="1" parent="1">
          <mxGeometry x="1830" y="1349" width="90" height="90" as="geometry" />
        </mxCell>
        <mxCell id="2Fv1Fu4X-BrB-Ee9JY3G-42" value="" style="rounded=0;whiteSpace=wrap;html=1;verticalLabelPosition=bottom;labelBackgroundColor=#ffffff;verticalAlign=top;strokeWidth=2;strokeColor=#0080F0;shadow=0;dashed=0;shape=mxgraph.ios7.icons.trashcan;" vertex="1" parent="1">
          <mxGeometry x="1830" y="1460" width="90" height="90" as="geometry" />
        </mxCell>
        <mxCell id="2Fv1Fu4X-BrB-Ee9JY3G-43" value="" style="rounded=0;whiteSpace=wrap;html=1;verticalLabelPosition=bottom;labelBackgroundColor=#ffffff;verticalAlign=top;strokeWidth=2;strokeColor=#0080F0;shadow=0;dashed=0;shape=mxgraph.ios7.icons.trashcan;" vertex="1" parent="1">
          <mxGeometry x="1830" y="1570" width="90" height="90" as="geometry" />
        </mxCell>
        <mxCell id="2Fv1Fu4X-BrB-Ee9JY3G-44" value="" style="rounded=0;whiteSpace=wrap;html=1;verticalLabelPosition=bottom;labelBackgroundColor=#ffffff;verticalAlign=top;strokeWidth=2;strokeColor=#0080F0;shadow=0;dashed=0;shape=mxgraph.ios7.icons.trashcan;" vertex="1" parent="1">
          <mxGeometry x="1830" y="1670" width="90" height="90" as="geometry" />
        </mxCell>
        <mxCell id="2Fv1Fu4X-BrB-Ee9JY3G-45" value="" style="rounded=0;whiteSpace=wrap;html=1;verticalLabelPosition=bottom;labelBackgroundColor=#ffffff;verticalAlign=top;strokeWidth=2;strokeColor=#0080F0;shadow=0;dashed=0;shape=mxgraph.ios7.icons.trashcan;" vertex="1" parent="1">
          <mxGeometry x="1830" y="1780" width="90" height="90" as="geometry" />
        </mxCell>
        <mxCell id="2Fv1Fu4X-BrB-Ee9JY3G-46" value="" style="rounded=0;whiteSpace=wrap;html=1;verticalLabelPosition=bottom;labelBackgroundColor=#ffffff;verticalAlign=top;strokeWidth=2;strokeColor=#0080F0;shadow=0;dashed=0;shape=mxgraph.ios7.icons.trashcan;" vertex="1" parent="1">
          <mxGeometry x="1830" y="1890" width="90" height="90" as="geometry" />
        </mxCell>
        <mxCell id="2Fv1Fu4X-BrB-Ee9JY3G-47" value="" style="rounded=0;whiteSpace=wrap;html=1;verticalLabelPosition=bottom;labelBackgroundColor=#ffffff;verticalAlign=top;strokeWidth=2;strokeColor=#0080F0;shadow=0;dashed=0;shape=mxgraph.ios7.icons.trashcan;" vertex="1" parent="1">
          <mxGeometry x="1830" y="2000" width="90" height="90" as="geometry" />
        </mxCell>
        <mxCell id="2Fv1Fu4X-BrB-Ee9JY3G-48" value="Checkout" style="rounded=0;whiteSpace=wrap;html=1;verticalAlign=top;fontSize=60;" vertex="1" parent="1">
          <mxGeometry x="1960" y="10" width="1920" height="1080" as="geometry" />
        </mxCell>
        <mxCell id="2Fv1Fu4X-BrB-Ee9JY3G-95" value="Email" style="text;html=1;align=center;verticalAlign=middle;whiteSpace=wrap;rounded=0;fontSize=60;" vertex="1" parent="1">
          <mxGeometry x="1970" y="130" width="460" height="150" as="geometry" />
        </mxCell>
        <mxCell id="2Fv1Fu4X-BrB-Ee9JY3G-96" value="" style="rounded=0;whiteSpace=wrap;html=1;" vertex="1" parent="1">
          <mxGeometry x="2430" y="130" width="1440" height="150" as="geometry" />
        </mxCell>
        <mxCell id="2Fv1Fu4X-BrB-Ee9JY3G-97" value="Card Details" style="text;html=1;align=center;verticalAlign=middle;whiteSpace=wrap;rounded=0;fontSize=60;" vertex="1" parent="1">
          <mxGeometry x="2615" y="280" width="560" height="150" as="geometry" />
        </mxCell>
        <mxCell id="2Fv1Fu4X-BrB-Ee9JY3G-98" value="Card Number" style="text;html=1;align=center;verticalAlign=middle;whiteSpace=wrap;rounded=0;fontSize=60;" vertex="1" parent="1">
          <mxGeometry x="1970" y="390" width="460" height="150" as="geometry" />
        </mxCell>
        <mxCell id="2Fv1Fu4X-BrB-Ee9JY3G-99" value="" style="rounded=0;whiteSpace=wrap;html=1;" vertex="1" parent="1">
          <mxGeometry x="2430" y="390" width="1440" height="150" as="geometry" />
        </mxCell>
        <mxCell id="2Fv1Fu4X-BrB-Ee9JY3G-100" value="CVV" style="text;html=1;align=center;verticalAlign=middle;whiteSpace=wrap;rounded=0;fontSize=60;" vertex="1" parent="1">
          <mxGeometry x="1970" y="550" width="460" height="150" as="geometry" />
        </mxCell>
        <mxCell id="2Fv1Fu4X-BrB-Ee9JY3G-101" value="" style="rounded=0;whiteSpace=wrap;html=1;" vertex="1" parent="1">
          <mxGeometry x="2430" y="550" width="1440" height="150" as="geometry" />
        </mxCell>
        <mxCell id="2Fv1Fu4X-BrB-Ee9JY3G-102" value="Expiration" style="text;html=1;align=center;verticalAlign=middle;whiteSpace=wrap;rounded=0;fontSize=60;" vertex="1" parent="1">
          <mxGeometry x="1970" y="710" width="460" height="150" as="geometry" />
        </mxCell>
        <mxCell id="2Fv1Fu4X-BrB-Ee9JY3G-103" value="" style="rounded=0;whiteSpace=wrap;html=1;" vertex="1" parent="1">
          <mxGeometry x="2430" y="710" width="1440" height="150" as="geometry" />
        </mxCell>
        <mxCell id="2Fv1Fu4X-BrB-Ee9JY3G-104" value="Pay Now" style="rounded=0;whiteSpace=wrap;html=1;fontSize=80;" vertex="1" parent="1">
          <mxGeometry x="2705" y="900" width="380" height="190" as="geometry" />
        </mxCell>
        <mxCell id="2Fv1Fu4X-BrB-Ee9JY3G-105" value="Add" style="rounded=0;whiteSpace=wrap;html=1;fontSize=60;" vertex="1" parent="1">
          <mxGeometry x="20" y="520" width="300" height="100" as="geometry" />
        </mxCell>
        <mxCell id="2Fv1Fu4X-BrB-Ee9JY3G-106" value="Details" style="rounded=0;whiteSpace=wrap;html=1;fontSize=60;" vertex="1" parent="1">
          <mxGeometry x="320" y="520" width="300" height="100" as="geometry" />
        </mxCell>
        <mxCell id="2Fv1Fu4X-BrB-Ee9JY3G-107" value="Add" style="rounded=0;whiteSpace=wrap;html=1;fontSize=60;" vertex="1" parent="1">
          <mxGeometry x="670" y="520" width="300" height="100" as="geometry" />
        </mxCell>
        <mxCell id="2Fv1Fu4X-BrB-Ee9JY3G-108" value="Details" style="rounded=0;whiteSpace=wrap;html=1;fontSize=60;" vertex="1" parent="1">
          <mxGeometry x="970" y="520" width="300" height="100" as="geometry" />
        </mxCell>
        <mxCell id="2Fv1Fu4X-BrB-Ee9JY3G-109" value="Add" style="rounded=0;whiteSpace=wrap;html=1;fontSize=60;" vertex="1" parent="1">
          <mxGeometry x="1320" y="520" width="300" height="100" as="geometry" />
        </mxCell>
        <mxCell id="2Fv1Fu4X-BrB-Ee9JY3G-110" value="Details" style="rounded=0;whiteSpace=wrap;html=1;fontSize=60;" vertex="1" parent="1">
          <mxGeometry x="1620" y="520" width="300" height="100" as="geometry" />
        </mxCell>
        <mxCell id="2Fv1Fu4X-BrB-Ee9JY3G-111" value="Add" style="rounded=0;whiteSpace=wrap;html=1;fontSize=60;" vertex="1" parent="1">
          <mxGeometry x="20" y="980" width="300" height="100" as="geometry" />
        </mxCell>
        <mxCell id="2Fv1Fu4X-BrB-Ee9JY3G-112" value="Details" style="rounded=0;whiteSpace=wrap;html=1;fontSize=60;" vertex="1" parent="1">
          <mxGeometry x="320" y="980" width="300" height="100" as="geometry" />
        </mxCell>
        <mxCell id="2Fv1Fu4X-BrB-Ee9JY3G-113" value="Add" style="rounded=0;whiteSpace=wrap;html=1;fontSize=60;" vertex="1" parent="1">
          <mxGeometry x="670" y="980" width="300" height="100" as="geometry" />
        </mxCell>
        <mxCell id="2Fv1Fu4X-BrB-Ee9JY3G-114" value="Details" style="rounded=0;whiteSpace=wrap;html=1;fontSize=60;" vertex="1" parent="1">
          <mxGeometry x="970" y="980" width="300" height="100" as="geometry" />
        </mxCell>
        <mxCell id="2Fv1Fu4X-BrB-Ee9JY3G-115" value="Add" style="rounded=0;whiteSpace=wrap;html=1;fontSize=60;" vertex="1" parent="1">
          <mxGeometry x="1320" y="980" width="300" height="100" as="geometry" />
        </mxCell>
        <mxCell id="2Fv1Fu4X-BrB-Ee9JY3G-116" value="Details" style="rounded=0;whiteSpace=wrap;html=1;fontSize=60;" vertex="1" parent="1">
          <mxGeometry x="1620" y="980" width="300" height="100" as="geometry" />
        </mxCell>
        <mxCell id="2Fv1Fu4X-BrB-Ee9JY3G-117" value="Stock" style="rounded=0;whiteSpace=wrap;html=1;fontSize=60;" vertex="1" parent="1">
          <mxGeometry x="320" y="420" width="300" height="100" as="geometry" />
        </mxCell>
        <mxCell id="2Fv1Fu4X-BrB-Ee9JY3G-118" value="Stock" style="rounded=0;whiteSpace=wrap;html=1;fontSize=60;" vertex="1" parent="1">
          <mxGeometry x="970" y="420" width="300" height="100" as="geometry" />
        </mxCell>
        <mxCell id="2Fv1Fu4X-BrB-Ee9JY3G-119" value="Stock" style="rounded=0;whiteSpace=wrap;html=1;fontSize=60;" vertex="1" parent="1">
          <mxGeometry x="320" y="880" width="300" height="100" as="geometry" />
        </mxCell>
        <mxCell id="2Fv1Fu4X-BrB-Ee9JY3G-120" value="Stock" style="rounded=0;whiteSpace=wrap;html=1;fontSize=60;" vertex="1" parent="1">
          <mxGeometry x="970" y="880" width="300" height="100" as="geometry" />
        </mxCell>
        <mxCell id="2Fv1Fu4X-BrB-Ee9JY3G-121" value="Stock" style="rounded=0;whiteSpace=wrap;html=1;fontSize=60;" vertex="1" parent="1">
          <mxGeometry x="1620" y="880" width="300" height="100" as="geometry" />
        </mxCell>
        <mxCell id="2Fv1Fu4X-BrB-Ee9JY3G-122" value="Stock" style="rounded=0;whiteSpace=wrap;html=1;fontSize=60;" vertex="1" parent="1">
          <mxGeometry x="1620" y="420" width="300" height="100" as="geometry" />
        </mxCell>
      </root>
    </mxGraphModel>
  </diagram>
</mxfile>
